<?xml version="1.0" standalone="no"?>
<!DOCTYPE svg PUBLIC "-//W3C//DTD SVG 20010904//EN"
 "http://www.w3.org/TR/2001/REC-SVG-20010904/DTD/svg10.dtd">
<svg version="1.0" xmlns="http://www.w3.org/2000/svg"
 width="700.000000pt" height="700.000000pt" viewBox="0 0 700.000000 700.000000"
 preserveAspectRatio="xMidYMid meet">
<metadata>
Created by potrace 1.11, written by Peter Selinger 2001-2013
</metadata>
<g transform="translate(0.000000,700.000000) scale(0.100000,-0.100000)"
fill="#000000" stroke="none">
<path d="M2160 6990 c-836 -64 -1570 -568 -1931 -1325 -100 -210 -165 -425
-200 -659 -25 -166 -30 -464 -10 -616 67 -508 273 -948 617 -1318 372 -398
900 -662 1446 -721 212 -23 513 -9 718 34 288 60 579 181 820 342 l65 43 164
-164 164 -164 -32 -40 c-98 -124 -117 -288 -49 -427 26 -52 1748 -1780 1832
-1837 282 -194 659 -180 926 36 122 98 210 231 261 396 34 106 34 299 1 415
-34 119 -95 223 -193 333 -48 54 -448 457 -890 898 -606 603 -816 806 -854
826 -138 71 -288 61 -418 -29 l-38 -27 -165 165 -164 164 43 65 c161 241 282
532 342 820 43 205 57 506 34 718 -78 723 -496 1374 -1125 1751 -397 239 -899
357 -1364 321z m408 -786 c903 -143 1488 -1013 1277 -1899 -66 -277 -193 -508
-394 -719 -388 -403 -959 -564 -1506 -425 -528 134 -954 548 -1105 1072 -49
172 -63 289 -57 482 7 238 45 401 138 603 191 414 572 736 1009 853 184 49
453 63 638 33z"/>
</g>
</svg>
